<svg width="112" height="40" viewBox="0 0 112 40" fill="none" xmlns="http://www.w3.org/2000/svg">
<g id="Company logo" clip-path="url(#clip0_6_8367)">
<path id="Union" fill-rule="evenodd" clip-rule="evenodd" d="M0.952499 5.0675H13.1178L0.952499 34.1613V5.0675ZM33.8268 5.0675H21.6773L33.8268 34.1613V5.0675ZM17.3977 15.7904L25.1407 34.1613H20.0606L17.7464 28.3124H12.0798L17.3977 15.7904ZM55.1078 27.6825L53.6733 23.5693H47.7848L46.4296 27.635C46.3741 27.7855 46.3028 27.8331 46.1522 27.8331H43.6875C43.5448 27.8331 43.4893 27.7618 43.5131 27.5874L48.5932 13.1396C48.6963 12.8939 48.7676 12.6403 48.8151 11.8081C48.8151 11.7051 48.8706 11.6338 48.9657 11.6338H52.3894C52.5162 11.6338 52.54 11.6576 52.5638 11.7844L58.2621 27.6112C58.2859 27.7618 58.2621 27.8331 58.1115 27.8331H55.3535C55.2267 27.8331 55.1554 27.7855 55.1078 27.6825ZM48.8775 19.9551C48.7719 20.2725 48.6686 20.5832 48.5695 20.8826H52.8887C52.7343 20.4006 52.5246 19.7624 52.2931 19.0578L52.2927 19.0569C51.7402 17.3753 51.0634 15.3159 50.7172 14.0986H50.6934C50.3499 15.5277 49.5656 17.886 48.8775 19.9548L48.8775 19.9551ZM65.5878 28.0788C67.0698 28.0788 68.6469 27.8093 70.2478 27.1198C70.3746 27.0722 70.3984 27.0168 70.3984 26.8979C70.3508 26.4541 70.2954 25.8121 70.2954 25.3208V10.4212C70.2954 10.3261 70.2954 10.2785 70.1765 10.2785H67.4898C67.3868 10.2785 67.3392 10.3261 67.3392 10.4529V15.5013C66.9192 15.4538 66.626 15.43 66.2773 15.43C61.9421 15.43 59.2792 18.291 59.2792 21.8653C59.2792 26.0103 62.0134 28.0788 65.5878 28.0788ZM67.3392 25.3208C66.8954 25.4634 66.4041 25.5189 65.9048 25.5189C63.9393 25.5189 62.3305 24.4093 62.3305 21.7147C62.3305 19.3292 63.9868 17.9185 66.1822 17.9185C66.626 17.9185 67.0143 17.9661 67.3392 18.0929V25.3208ZM72.9778 21.7703C72.9778 18.2673 75.2682 15.43 78.9693 15.43C82.7655 15.43 84.834 18.3148 84.834 21.691C84.834 25.5189 82.393 28.0788 78.9138 28.0788C74.8006 28.0788 72.9778 24.9007 72.9778 21.7703ZM81.7986 21.7703C81.7986 19.7176 80.911 17.9186 78.8187 17.9186C77.1623 17.9186 75.9815 19.3768 75.9815 21.7148C75.9815 23.9893 77.091 25.5665 78.9693 25.5665C80.491 25.5665 81.7986 24.3064 81.7986 21.7703ZM87.6118 10.2785C87.5087 10.2785 87.4374 10.3261 87.4374 10.4529V27.3179C87.4374 27.3893 87.5087 27.5161 87.6118 27.5398C88.7926 27.9044 90.029 28.0788 91.3049 28.0788C94.9585 28.0788 98.509 25.8121 98.509 21.2471C98.509 17.9423 96.2424 15.43 92.6919 15.43C91.8756 15.43 91.1147 15.5568 90.449 15.7787L90.4173 10.4767C90.4173 10.3023 90.3697 10.2785 90.1954 10.2785H87.6118ZM95.4736 21.5483C95.4736 24.2825 93.6033 25.5664 91.5823 25.5664C91.1623 25.5664 90.7898 25.5427 90.449 25.4396V18.2435C90.8373 18.0929 91.3049 17.9661 92.1688 17.9661C94.1184 17.9661 95.4736 19.2024 95.4736 21.5483ZM111.072 22.333C110.731 22.4122 109.74 22.436 108.536 22.436H103.527C103.598 24.1558 104.739 25.5427 107.252 25.5427C108.361 25.5427 109.376 25.3446 110.311 24.9483C110.382 24.9007 110.453 24.9245 110.453 25.0434V27.0961C110.453 27.2387 110.406 27.318 110.311 27.3655C109.376 27.8093 108.29 28.0788 106.61 28.0788C102.124 28.0788 100.523 24.9245 100.523 21.8891C100.523 18.4654 102.592 15.43 106.316 15.43C109.962 15.43 111.373 18.2911 111.373 20.6369C111.373 21.3264 111.341 21.8891 111.27 22.1586C111.246 22.2616 111.198 22.3092 111.072 22.333ZM106.19 17.7997C104.486 17.7997 103.725 19.1074 103.527 20.312H107.204H107.204C108.139 20.312 108.456 20.312 108.559 20.2882V20.0901C108.559 19.3768 108.068 17.7997 106.19 17.7997Z" fill="#A6A9A9"/>
</g>
<defs>
<clipPath id="clip0_6_8367">
<rect width="111" height="40" fill="white" transform="translate(0.5)"/>
</clipPath>
</defs>
</svg>
