<svg width="16" height="16" viewBox="0 0 16 16" fill="none" xmlns="http://www.w3.org/2000/svg">
<g id="mdi:whatsapp">
<path id="Vector" d="M8.02667 1.33305C4.38667 1.33305 1.42 4.29971 1.42 7.93971C1.42 9.10638 1.72667 10.2397 2.3 11.2397L1.36667 14.6664L4.86667 13.7464C5.83333 14.273 6.92 14.553 8.02667 14.553C11.6667 14.553 14.6333 11.5864 14.6333 7.94638C14.6333 6.17971 13.9467 4.51971 12.7 3.27305C12.0888 2.65566 11.3608 2.16616 10.5584 1.83308C9.75606 1.5 8.89541 1.33002 8.02667 1.33305ZM8.03333 2.44638C9.5 2.44638 10.8733 3.01971 11.9133 4.05971C12.4237 4.56995 12.8284 5.17593 13.1041 5.84289C13.3798 6.50985 13.5212 7.22468 13.52 7.94638C13.52 10.973 11.0533 13.433 8.02667 13.433C7.04 13.433 6.07334 13.173 5.23334 12.6664L5.03334 12.553L2.95334 13.0997L3.50667 11.073L3.37334 10.8597C2.82263 9.98549 2.53134 8.97293 2.53334 7.93971C2.54 4.91305 5 2.44638 8.03333 2.44638ZM5.68667 4.88638C5.58 4.88638 5.4 4.92638 5.24667 5.09305C5.1 5.25971 4.66667 5.66638 4.66667 6.47305C4.66667 7.28638 5.26 8.06638 5.33333 8.17971C5.42667 8.29305 6.50667 9.95971 8.16667 10.6664C8.56 10.8464 8.86667 10.9464 9.10667 11.0197C9.5 11.1464 9.86 11.1264 10.1467 11.0864C10.4667 11.0397 11.12 10.6864 11.26 10.2997C11.4 9.91305 11.4 9.58638 11.36 9.51305C11.3133 9.44638 11.2067 9.40638 11.04 9.33305C10.8733 9.23971 10.06 8.83971 9.91333 8.78638C9.76 8.73305 9.66667 8.70638 9.54 8.86638C9.43334 9.03305 9.11333 9.40638 9.02 9.51305C8.92 9.62638 8.82667 9.63971 8.66667 9.55971C8.49333 9.47305 7.96 9.29971 7.33333 8.73971C6.84 8.29971 6.51333 7.75971 6.41333 7.59305C6.33333 7.43305 6.40667 7.33305 6.48667 7.25971C6.56 7.18638 6.66667 7.06638 6.73334 6.96638C6.82 6.87305 6.84667 6.79971 6.9 6.69305C6.95334 6.57971 6.92667 6.48638 6.88667 6.40638C6.84667 6.33305 6.51334 5.50638 6.37334 5.17971C6.24 4.85971 6.10667 4.89971 6 4.89305C5.90667 4.89305 5.8 4.88638 5.68667 4.88638Z" fill="white"/>
</g>
</svg>
