<svg width="25" height="24" viewBox="0 0 25 24" fill="none" xmlns="http://www.w3.org/2000/svg">
<g id="thumb_up" clip-path="url(#clip0_142_195)">
<path id="Vector" d="M13.62 2.05997L8.08 7.59997C7.71 7.96997 7.5 8.47997 7.5 9.00997V19C7.5 20.1 8.4 21 9.5 21H18.5C19.3 21 20.02 20.52 20.34 19.79L23.6 12.18C24.44 10.2 22.99 7.99997 20.84 7.99997H15.19L16.14 3.41997C16.24 2.91997 16.09 2.40997 15.73 2.04997C15.14 1.46997 14.2 1.46997 13.62 2.05997ZM3.5 21C4.6 21 5.5 20.1 5.5 19V11C5.5 9.89997 4.6 8.99997 3.5 8.99997C2.4 8.99997 1.5 9.89997 1.5 11V19C1.5 20.1 2.4 21 3.5 21Z" fill="white"/>
</g>
<defs>
<clipPath id="clip0_142_195">
<rect width="24" height="24" fill="white" transform="translate(0.5)"/>
</clipPath>
</defs>
</svg>
